<svg width="330" height="120" viewBox="0 0 330 120" fill="none" xmlns="http://www.w3.org/2000/svg">
<mask id="mask0_226_158" style="mask-type:luminance" maskUnits="userSpaceOnUse" x="104" y="0" width="28" height="27">
<path d="M104.777 0.536133H131.392V26.2653H104.777V0.536133Z" fill="white"/>
</mask>
<g mask="url(#mask0_226_158)">
<path d="M118.194 20.2132L126.491 26.2497L123.319 16.4997L131.616 10.5986H121.439L118.194 0.536133L114.954 10.5986H104.777L113.074 16.4997L109.913 26.2497L118.194 20.2132Z" fill="#FFBD59"/>
</g>
<path d="M20.8672 79.2578H31.8568L33.7526 74.0339H49.8255L51.7891 79.2578H62.7109L42.2995 29.0078H41.2786L20.8672 79.2578ZM37.2786 64.9505L41.8255 52.3359L46.2318 64.9505H37.2786Z" fill="#FFBD59"/>
<path d="M84.5495 80.2734H86.7214L106.794 30.7734H95.6016L89.0911 47.2526L85.6328 56.9453L82.1068 46.9089L75.6641 30.7734H64.4766L84.5495 80.2734Z" fill="white"/>
<path d="M122.38 79.2578V30.7734H112.688V79.2578H122.38Z" fill="white"/>
<path d="M131.066 76.1382C137.645 79.5288 143.681 79.8673 146.389 79.6642C155.478 79.1903 161.04 73.0184 161.04 64.9507C161.04 57.2163 154.53 52.8778 147.004 50.0965C144.223 49.1486 141.848 47.9298 141.577 45.2163C141.374 42.5028 142.931 39.9923 146.389 39.7892C147.884 39.7215 150.936 39.6538 156.29 41.8257L157.514 32.4663C151.275 30.2944 147.952 30.2944 145.441 30.4351C137.374 30.8413 131.743 37.0809 131.743 45.2163C131.743 53.3517 138.525 57.2163 146.118 59.9976C148.832 60.9507 150.936 62.1694 151.139 64.9507C151.41 67.5965 148.967 69.6278 146.118 69.8309C143.884 70.034 137.848 69.8986 132.285 65.9663L131.066 76.1382Z" fill="#FFBD59"/>
<path d="M186.884 79.2585V40.472H198.952V30.8418H165.113V40.472H177.186V79.2585H186.884Z" fill="white"/>
<path d="M201.93 79.2578H212.919L214.815 74.0339H230.888L232.852 79.2578H243.773L223.362 29.0078H222.341L201.93 79.2578ZM218.341 64.9505L222.888 52.3359L227.294 64.9505H218.341Z" fill="white"/>
<path d="M274.755 40.4714V30.7734H250.547V79.2578H260.24V59.862H272.583V50.1641H260.24V40.4714H274.755Z" fill="white"/>
<path d="M306.962 40.4714V30.7734H282.754V79.2578H292.447V59.862H304.79V50.1641H292.447V40.4714H306.962Z" fill="white"/>
</svg>
