<?xml version="1.0" standalone="no"?>
<!DOCTYPE svg PUBLIC "-//W3C//DTD SVG 20010904//EN"
 "http://www.w3.org/TR/2001/REC-SVG-20010904/DTD/svg10.dtd">
<svg version="1.0" xmlns="http://www.w3.org/2000/svg"
 width="896.000000pt" height="896.000000pt" viewBox="0 0 896.000000 896.000000"
 preserveAspectRatio="xMidYMid meet">
<metadata>
Created by potrace 1.14, written by Peter Selinger 2001-2017
</metadata>
<g transform="translate(0.000000,896.000000) scale(0.100000,-0.100000)"
fill="#000000" stroke="none">
<path d="M4539 8655 c-4 -14 -7 -22 -16 -45 -6 -14 -14 -41 -18 -60 -4 -19
-10 -39 -13 -45 -4 -5 -7 -14 -8 -20 -3 -13 -73 -235 -81 -255 -4 -8 -7 -17
-8 -20 -1 -3 -15 -50 -33 -105 -17 -55 -31 -103 -31 -108 -1 -4 -8 -21 -16
-37 -9 -17 -14 -30 -11 -30 2 0 -6 -29 -19 -65 -13 -36 -21 -65 -18 -65 3 0 0
-6 -6 -13 -6 -8 -12 -22 -14 -33 -4 -25 -118 -376 -126 -389 -3 -5 -6 -12 -6
-15 -5 -30 -19 -78 -27 -87 -6 -7 -8 -13 -5 -13 4 0 -6 -37 -22 -82 -24 -70
-105 -322 -168 -523 -9 -27 -18 -54 -22 -60 -3 -5 -6 -16 -7 -23 -2 -12 -129
-410 -141 -442 -3 -8 -7 -21 -9 -28 -1 -8 -6 -21 -10 -30 -4 -9 -8 -22 -9 -29
-2 -6 -24 -76 -50 -155 -26 -78 -49 -150 -50 -158 -2 -8 -4 -16 -5 -17 -2 -2
-3 -6 -5 -10 -1 -5 -4 -15 -8 -23 -3 -8 -17 -53 -32 -99 -14 -46 -29 -91 -34
-99 -8 -14 -186 -15 -1630 -15 -891 0 -1621 -1 -1621 -3 0 -4 146 -108 221
-158 24 -16 46 -32 49 -36 3 -3 34 -26 70 -50 36 -24 67 -47 68 -52 2 -4 10
-8 17 -8 7 0 15 -4 17 -8 1 -4 32 -28 68 -52 35 -25 71 -51 80 -57 14 -11 399
-285 444 -315 10 -7 24 -18 30 -23 6 -6 24 -19 41 -29 16 -11 34 -23 40 -28 9
-8 120 -87 168 -120 47 -32 224 -160 240 -173 9 -8 19 -15 22 -15 7 0 189
-133 197 -145 4 -5 8 -7 8 -3 0 7 156 -104 193 -136 9 -9 20 -16 23 -16 5 0
165 -113 209 -147 6 -4 39 -28 75 -53 36 -24 70 -48 75 -53 6 -4 42 -30 80
-58 39 -28 81 -59 95 -70 13 -10 30 -19 36 -19 7 0 14 -4 16 -8 1 -4 18 -18
36 -31 19 -14 29 -27 25 -34 -4 -7 -9 -19 -10 -27 -1 -8 -14 -49 -28 -90 -25
-74 -31 -93 -39 -128 -2 -9 -10 -30 -17 -47 -6 -16 -13 -34 -15 -40 -2 -11
-52 -171 -60 -195 -3 -8 -5 -17 -6 -20 0 -3 -6 -20 -13 -38 -8 -17 -11 -32 -8
-32 3 0 1 -6 -4 -13 -8 -10 -17 -35 -28 -77 0 -3 -9 -30 -20 -60 -10 -30 -20
-59 -21 -65 -1 -5 -27 -86 -58 -178 -31 -93 -56 -172 -56 -177 0 -5 -5 -21
-12 -37 -6 -15 -12 -32 -14 -38 -1 -5 -32 -102 -69 -215 -37 -112 -68 -209
-69 -215 -1 -5 -5 -16 -9 -22 -5 -7 -6 -13 -2 -13 3 0 -1 -13 -10 -30 -8 -16
-16 -41 -17 -55 -1 -14 -6 -25 -10 -25 -4 0 -8 -11 -8 -25 0 -14 -4 -25 -8
-25 -5 0 -9 -6 -10 -12 -1 -25 -105 -356 -135 -433 -6 -16 -12 -34 -13 -40 -1
-5 -14 -46 -29 -90 -15 -44 -28 -84 -29 -90 -1 -5 -39 -122 -83 -260 -45 -137
-84 -261 -88 -275 -6 -23 -5 -24 9 -7 8 10 17 17 20 15 2 -2 19 8 35 22 17 14
43 35 58 47 16 13 32 23 36 23 5 0 14 6 22 12 7 7 25 22 41 33 15 11 48 36 73
55 25 20 59 44 76 54 16 11 34 23 40 28 19 16 83 63 105 78 20 13 78 56 105
78 6 4 51 36 100 72 50 35 92 68 93 72 2 4 8 8 14 8 5 0 15 6 22 13 8 6 23 19
35 27 53 36 208 150 224 164 9 9 19 16 22 16 3 0 11 4 18 10 43 35 117 90 122
90 4 0 13 6 20 13 42 36 113 87 124 87 6 0 11 4 11 8 0 4 32 30 71 57 39 28
76 55 82 60 7 6 62 46 122 90 61 44 112 83 113 87 2 4 8 8 13 8 5 0 39 22 74
50 35 27 69 50 75 50 5 0 10 4 10 8 0 4 13 16 30 25 16 10 35 23 42 30 7 7 49
38 93 69 44 32 85 61 90 65 6 5 26 19 45 33 19 13 37 27 40 30 3 3 34 26 70
51 36 24 69 50 73 57 5 7 12 10 18 7 5 -4 9 -2 9 3 0 4 33 31 73 59 61 43 76
49 92 40 11 -5 22 -13 25 -17 3 -4 71 -55 152 -113 81 -58 153 -110 160 -116
44 -36 180 -131 188 -131 6 0 10 -4 10 -8 0 -5 41 -38 91 -73 50 -35 113 -80
139 -99 27 -19 115 -83 197 -142 81 -59 153 -111 158 -116 6 -4 28 -21 50 -37
22 -17 42 -33 43 -37 2 -5 8 -8 12 -8 7 0 154 -104 195 -138 6 -4 48 -35 95
-67 84 -59 111 -79 134 -101 6 -6 23 -17 36 -24 14 -7 32 -19 40 -27 8 -8 139
-104 290 -214 151 -109 282 -205 291 -212 8 -6 23 -16 32 -22 9 -5 74 -52 144
-104 70 -51 134 -96 141 -98 8 -4 5 17 -11 63 -32 91 -67 196 -70 209 -6 22
-99 311 -107 330 -16 39 -70 215 -70 230 0 8 -5 15 -10 15 -6 0 -9 3 -8 8 1 4
-2 18 -6 32 -19 63 -221 685 -248 765 -17 50 -31 95 -32 100 -4 19 -17 60 -26
80 -5 11 -23 67 -41 125 -17 58 -36 111 -41 118 -6 6 -8 12 -5 12 5 0 -51 178
-70 220 -3 8 -8 23 -9 33 -4 19 -119 375 -136 419 -5 15 -10 31 -11 35 0 4
-11 40 -25 78 -13 39 -25 75 -26 80 -1 6 -6 24 -13 40 -19 54 -36 115 -32 118
2 2 99 70 214 152 116 81 212 152 213 157 2 4 8 8 13 8 5 0 75 47 155 105 80
58 149 105 154 105 4 0 10 4 12 8 2 4 25 23 53 42 27 19 54 38 60 42 54 40
117 86 135 98 12 8 44 31 71 50 26 19 71 51 99 70 28 19 61 43 73 53 12 9 83
60 157 112 74 53 143 102 153 110 9 8 21 15 25 15 4 0 19 10 34 23 15 12 44
33 63 47 20 14 42 31 50 38 7 6 18 12 24 12 6 0 11 5 11 10 0 6 6 10 14 10 8
0 16 4 18 8 2 5 26 23 53 42 28 19 55 38 60 43 6 4 62 45 125 89 63 45 117 84
120 88 3 3 23 17 45 30 22 13 42 27 45 30 3 4 48 36 100 73 52 36 101 71 107
77 7 6 28 20 48 31 19 12 35 25 35 29 0 5 9 12 20 15 14 4 20 15 20 34 l0 28
-1592 0 -1592 0 -18 54 c-10 30 -21 61 -25 69 -3 8 -8 24 -10 35 -1 11 -7 29
-12 40 -9 19 -30 84 -35 108 -2 7 -5 19 -8 27 -18 48 -69 206 -178 550 -39
124 -74 232 -77 240 -4 8 -7 18 -8 23 -2 4 -4 9 -5 12 -1 3 -3 8 -4 13 -6 21
-40 130 -47 147 -7 18 -52 154 -54 165 -1 3 -7 25 -15 50 -7 25 -15 50 -16 55
-10 31 -67 203 -73 220 -7 17 -73 221 -76 235 -7 27 -19 67 -24 75 -3 6 -7 17
-9 25 -1 8 -4 20 -5 25 -6 19 -98 300 -104 315 -3 8 -8 24 -10 35 -1 11 -7 29
-12 40 -10 21 -38 108 -46 141 -3 10 -23 73 -45 139 -23 66 -42 128 -43 138
-1 9 -5 17 -9 17 -4 0 -8 8 -8 18 0 9 -11 47 -24 85 -13 37 -22 67 -19 67 3 0
0 6 -6 13 -6 8 -8 17 -4 20 3 4 1 7 -5 7 -7 0 -13 -2 -13 -5z"/>
</g>
</svg>
