<svg width="1462" height="356" viewBox="0 0 1462 356" fill="none" xmlns="http://www.w3.org/2000/svg">
<mask id="mask0_285_117" style="mask-type:luminance" maskUnits="userSpaceOnUse" x="465" y="2" width="119" height="115">
<path d="M465.207 2.15625H583.298V116.319H465.207V2.15625Z" fill="white"/>
</mask>
<g mask="url(#mask0_285_117)">
<path d="M524.738 89.465L561.552 116.249L547.478 72.9877L584.292 46.8043H539.135L524.738 2.15625L510.364 46.8043H465.207L502.021 72.9877L487.993 116.249L524.738 89.465Z" fill="#FFBD59"/>
</g>
<path d="M92.8945 351.451H141.656L150.068 328.272H221.385L230.097 351.451H278.558L187.991 128.488H183.462L92.8945 351.451ZM165.713 287.969L185.888 231.997L205.439 287.969H165.713Z" fill="#FFBD59"/>
<path d="M375.463 355.957H385.1L474.165 136.322H424.502L395.615 209.442L380.27 252.449L364.625 207.916L336.038 136.322H286.398L375.463 355.957Z" fill="white"/>
<path d="M543.312 351.451V136.322H500.305V351.451H543.312Z" fill="white"/>
<path d="M581.859 337.607C611.047 352.652 637.831 354.154 649.848 353.253C690.175 351.15 714.856 323.765 714.856 287.968C714.856 253.65 685.969 234.399 652.575 222.059C640.235 217.853 629.697 212.445 628.495 200.405C627.594 188.365 634.503 177.226 649.848 176.324C656.481 176.024 670.023 175.724 693.78 185.36L699.211 143.832C671.525 134.195 656.781 134.195 645.642 134.819C609.845 136.622 584.864 164.307 584.864 200.405C584.864 236.502 614.953 253.65 648.647 265.99C660.687 270.219 670.023 275.627 670.924 287.968C672.126 299.707 661.288 308.72 648.647 309.622C638.733 310.523 611.948 309.922 587.267 292.474L581.859 337.607Z" fill="#FFBD59"/>
<path d="M829.529 351.452V179.354H883.074V136.624H732.93V179.354H786.498V351.452H829.529Z" fill="white"/>
<path d="M896.277 351.451H945.039L953.451 328.272H1024.77L1033.48 351.451H1081.94L991.374 128.488H986.845L896.277 351.451ZM969.096 287.969L989.271 231.997L1008.82 287.969H969.096Z" fill="white"/>
<path d="M1219.41 179.353V136.322H1112V351.451H1155.01V265.39H1209.78V222.36H1155.01V179.353H1219.41Z" fill="white"/>
<path d="M1362.32 179.353V136.322H1254.91V351.451H1297.91V265.39H1352.68V222.36H1297.91V179.353H1362.32Z" fill="white"/>
</svg>
